# xmcd CD database file
#
# Track frame offsets:
#	150
#	25875
#	61800
#	98700
#	118275
#	158625
#	186825
#	209250
#	236850
#
# Disc length: 3584 seconds
#
# Revision: 0
# Processed by: cddbd v1.5.1PL0 Copyright (c) Steve Scherf et al.
# Submitted via: CDex 1.51
#
DISCID=770dfe09
DTITLE=ROB SCHNEIDERMAN - Dark Blue
DYEAR=1994
DGENRE=Jazz
TTITLE0=Dark Blue
TTITLE1=The Touch Of Your Lips
TTITLE2=The Lion's Mane
TTITLE3=Silent Conversation
TTITLE4=Smoke Screen
TTITLE5=East Bay Blues
TTITLE6=This Love Of Mine
TTITLE7=People Will Say We're In Love
TTITLE8=City Limits
EXTD=YEAR: 1994
EXTT0=
EXTT1=
EXTT2=
EXTT3=
EXTT4=
EXTT5=
EXTT6=
EXTT7=
EXTT8=
PLAYORDER=
